<svg width="606" height="229" viewBox="0 0 606 229" fill="none" xmlns="http://www.w3.org/2000/svg">
<path d="M207.24 5.83653L200.53 14.4665C201.73 14.7765 204.13 12.1465 204.78 12.6365C204.89 12.7165 204.79 13.5865 205.07 13.5165C205.31 13.4565 209.01 10.8865 208.19 12.7865C207.37 14.6865 201.71 17.5365 200.52 19.7465C203.8 19.0465 208.84 14.4265 211.79 13.9865C214.31 13.6065 209.31 17.7165 209.16 18.0765L210.59 19.0265C201.39 27.5265 192.98 37.0565 182.3 43.7565C181.82 44.4365 190.18 57.4365 190.96 57.8665C191.8 58.3265 192.98 58.1665 193.8 58.8665C198.12 62.5365 192.47 80.2665 187.12 81.9165C179.61 84.2365 174.92 77.1665 171.06 72.0165C168.32 68.3665 165.68 62.9465 162.78 59.6865C162.53 59.4065 162.78 58.9865 161.94 59.0865L160.54 59.6565C151.94 67.1165 140.42 73.1665 131.97 80.4965C128 83.9365 125.97 89.5365 119.22 86.9265C118.48 84.7265 115.99 83.3165 115.04 81.5065C113.78 79.0965 113.12 74.3565 112.12 71.4765C111.85 70.7065 110.98 69.9865 110.88 69.3065C110.84 69.0165 111.95 65.8665 112.16 65.4765C113.61 62.8265 114.77 63.9165 116.76 62.8865C119.28 61.5865 124.38 56.6565 127.18 54.5965C134.57 49.1765 141.98 43.7665 149.47 38.4765C150.14 37.4365 146.55 33.5165 146.04 32.1965C134.23 38.7865 123.01 46.4965 111.83 54.1065L67.89 90.7565L67.18 90.0565C71.88 85.1465 76.05 79.7465 81.08 75.1665C77.56 76.0165 75.83 79.8365 72.46 81.1665C72.09 79.0865 74.88 78.5865 74.86 76.8565C70.32 76.6065 74.4 72.0865 74.39 71.3465C74.39 70.7565 73.58 70.1465 73.44 69.3965C73.27 68.4865 73.62 67.4165 73.44 66.6365C73.34 66.2265 72.44 66.1265 72.08 65.5065C71.18 63.9365 71.53 62.1765 71.98 60.5465C69.92 60.7665 69.76 62.7265 67.64 61.2265L55.2 67.7465C58.54 60.6365 66.28 54.9565 72.52 50.2865C89.76 37.3965 110.19 24.4265 128.34 12.5565C132.55 9.80652 136.17 8.64653 139.38 4.89653C140.84 3.19653 154.38 -0.00347964 156.55 0.66652C157.36 0.91652 157.69 1.92653 158.34 2.23653C159.15 2.61653 160.08 2.38652 161 2.93652C162.69 3.95652 164.91 9.96653 165.38 11.9865C165.87 14.1465 165.74 16.4565 166.23 18.3365C166.42 19.0665 169.23 24.4265 169.65 24.5265C171 24.8465 174.29 21.0865 175.37 20.2565C184.53 13.2365 195.71 7.33653 207.25 5.84653L207.24 5.83653ZM81.32 73.9765V74.4565C81.63 74.2965 81.63 74.1365 81.32 73.9765ZM75.79 76.8465L76.04 75.4165C75.31 75.9065 74.85 76.9265 75.79 76.8465Z" fill="white"/>
<path d="M520.97 15.9165C524.41 10.6365 528.63 5.73648 532.25 0.576485C534.66 -1.07352 534.91 1.13649 534.92 3.20649L532.96 24.5565C533.92 24.4665 534.1 21.9665 534.4 21.6865C534.94 21.1665 535.38 21.6465 535.37 22.4165C535.33 26.2865 533.45 30.7765 532.95 34.6465C529.53 40.1565 525.52 51.6165 523 58.0365C513.5 82.2165 505.21 106.976 496.97 131.566C494.69 138.386 491.85 145.316 489.65 152.306C488.73 155.226 484.1 173.567 483.22 174.297C481.67 175.597 478.06 175.787 476.68 176.637C475.8 177.177 475.05 179.656 473.12 179.956C472.85 179.996 468.32 178.927 467.79 178.757C466.24 178.237 456.71 170.756 455.41 169.306C453.51 167.186 453.78 166.436 453.8 163.716C453.84 157.896 458.55 148.327 460.53 142.387C468.15 119.497 476.07 97.5065 484.5 74.9565C491.56 56.0565 498.06 36.8565 506.47 18.4765L509.93 14.0265L509.46 16.8965L510.89 14.9865C511.24 15.5365 509.03 20.8665 510.89 19.2965C511.16 19.0665 514.08 14.1365 514.65 13.2165C515.17 12.3865 515.25 11.2965 515.77 10.4965C516.38 9.55648 520.59 3.45648 520.96 3.21648C522.96 1.93648 521.98 5.33649 521.93 5.86649L521.45 6.82648C521.3 7.04648 521.09 11.2265 520.97 12.1065C519.6 11.9565 520.15 12.2165 520.01 13.0665C519.84 14.0665 519.77 14.9165 519.53 15.9465C519.46 16.2365 517.55 19.8465 519.28 19.3065C519.79 19.1465 520.56 16.5665 520.96 15.9465L520.97 15.9165Z" fill="white"/>
<path d="M346.36 194.407C343 194.287 346.93 195.027 345.88 196.317C345.39 196.917 332.55 198.387 330.69 199.127L326.69 201.117C328.15 201.447 337.34 202.157 337.72 202.567C337.81 202.667 337.66 203.617 337.72 203.997C337.56 204.157 333.69 203.737 333.4 204.957C336.03 205.227 338.71 205.227 341.34 205.417C342.08 205.467 343.07 205.357 343.47 206.167C343.91 207.057 342.53 206.977 342.03 207.107C338.63 207.987 335.3 208.357 331.86 208.937C331.35 209.017 329.95 209.057 330.05 209.757C336.52 209.287 343.2 211.207 349.53 211.627C352.69 211.837 352.01 211.387 355.55 212.317C357.05 212.707 358.68 212.247 359.78 213.357C359.76 214.197 352.48 214.927 351.39 215.037C333.83 216.807 316.17 218.867 298.62 220.317C278.56 221.977 257.22 221.107 237.23 223.687C236.12 223.827 234.77 224.137 233.73 224.497C230.96 225.477 226.88 228.567 223.86 226.977C218.5 224.157 211.92 212.297 212.65 206.287C214.21 193.417 233.2 193.677 243.01 193.427C244.38 193.387 245.53 193.957 246.8 193.947C248.71 193.927 251.28 192.917 253.3 192.967C250.59 180.297 249.46 167.317 249.92 154.327C249.96 153.187 250.39 152.127 250.46 150.987C250.62 148.467 249.3 145.887 252.16 143.617C253.64 142.437 261.7 140.247 263.66 140.247C267.71 140.247 275.52 145.357 277.3 149.047C279.08 152.737 278.39 160.607 278.72 164.897C279.43 174.017 280.36 183.177 281.08 192.267C288.36 192.337 295.62 192.027 302.96 192.027C307.48 192.027 311.11 192.407 315.39 192.507C325.31 192.727 335.23 192.577 345.15 192.967L346.36 194.397V194.407Z" fill="white"/>
<path d="M196.69 146.907C195.79 147.837 195.18 149.507 193.82 149.787L195.73 150.017C195.32 150.627 191.74 153.467 192.38 154.097L196.21 152.187L194.3 155.537C203.24 151.967 193.53 159.867 193.82 161.047C193.89 161.347 195.9 162.697 196.38 162.657C196.72 162.627 201.47 158.857 200.53 161.057C199.8 162.757 194.13 166.737 192.87 168.747C195.72 168.317 197.57 164.797 200.09 163.937C201.03 163.617 201.69 164.167 202.79 163.847C205.7 162.977 210.7 158.387 213.73 157.947C214.44 157.847 214.59 157.947 214.46 158.677C214.2 160.137 209.93 163.597 209.19 165.397L212.53 164.427C210.89 165.977 209.41 167.717 207.75 169.237C193.91 181.907 179.07 193.677 165.04 206.167C158.38 212.097 149.83 222.287 142.1 226.407C138.24 228.457 136.11 227.717 132.76 225.517C124.05 219.817 102.46 191.937 95.3001 182.377C93.5001 179.977 86.59 170.067 86.37 167.757C86.27 166.707 86.85 165.827 86.87 164.897C86.93 162.337 85.7201 161.647 88.2701 159.147C89.2501 158.177 91.4501 157.557 91.5701 157.417C92.0001 156.917 90.8201 152.907 93.7701 151.217C95.0201 150.497 98.91 150.617 100.53 150.747C101.59 150.837 106.42 151.547 107.15 151.807C108.09 152.137 108.15 153.617 108.93 154.347C110.51 155.827 110.77 156.067 112.27 157.727C122.28 168.837 132.31 179.937 141.98 191.347C142.42 191.847 142.9 192.167 143.6 191.987C144.62 191.717 156.76 179.277 158.8 177.397C169.06 167.977 179.82 158.907 191 150.587C191.82 149.977 196.12 146.457 196.71 146.947L196.69 146.907ZM193.81 155.547C193.29 155.027 192.33 155.977 192.86 156.497C193.39 157.017 194.34 156.067 193.81 155.547ZM192.13 156.497V156.977C192.44 156.817 192.44 156.657 192.13 156.497Z" fill="white"/>
<path d="M532.96 34.6264C533.2 34.2364 533.4 33.5664 533.91 33.6664L534.15 35.1064L549.03 20.7164C549.61 20.5164 550 20.8265 549.74 21.4265C549.14 22.8065 545.56 25.7965 544.47 27.1965L545.65 27.8965L562.45 11.6064C563.4 12.2864 563.18 12.5664 562.95 13.5264C561.71 18.7364 556.47 25.3364 554.55 30.5564L564.13 21.9064C569.71 17.3264 579.78 9.13646 578.53 23.1165L581.41 21.9265C580.53 25.6465 577.12 28.3565 576.36 32.2265L596.75 12.0865C596.63 14.4265 594.32 15.9565 593.29 17.9765C592.86 18.8165 593.04 19.8364 592.64 20.6864C590.74 24.7264 584.45 29.9064 581.88 33.9164L582.59 34.6264L604.42 11.8365L605.38 12.3165L577.09 46.8865C577.17 48.4665 577.14 47.5565 577.69 47.0065C578.58 46.1065 579.11 45.7964 580.21 45.2064L579.49 47.5965L581.4 47.1164C581.54 47.8464 581.33 48.2365 580.95 48.8165C578.51 52.5765 569.97 59.0164 566.27 62.9264C547.6 82.7064 526.49 100.506 507.51 120.276C503.97 123.966 500.7 128.016 496.98 131.556C505.22 106.966 513.51 82.2064 523.01 58.0264C525.53 51.6064 529.55 40.1464 532.96 34.6364V34.6264ZM543.76 28.3864V28.8665C544.07 28.7065 544.07 28.5464 543.76 28.3864ZM543.04 29.3564L540.16 31.9865L539.21 33.6664C539.69 34.1664 543.7 30.5664 543.04 29.3564ZM539.2 34.1564C538.03 33.9664 536.46 36.0265 537.76 36.0665L539.2 34.1564ZM581.17 35.5865V36.0665C581.48 35.9065 581.48 35.7465 581.17 35.5865ZM580.45 37.0264C580.79 36.3564 580.15 35.7465 579.98 36.0765C579.64 36.7465 580.28 37.3564 580.45 37.0264ZM535.6 37.0264V37.5065C535.91 37.3465 535.91 37.1864 535.6 37.0264ZM578.78 48.0765L577.11 49.7464L577.34 49.9765L579.01 48.3064L578.78 48.0765Z" fill="#FFBF10"/>
<path d="M389.53 83.5663C390.84 80.1863 392.94 76.3463 394.71 73.1563C395.56 71.6363 401.89 61.2163 402.47 60.7663C402.83 60.4863 402.99 60.4763 403.44 60.5363C403.9 64.2463 402.06 67.9163 402.72 71.5663C404.25 70.9563 404.85 62.9463 406.8 64.8463C407.05 65.0963 406.27 66.8763 407.28 66.7663C407.98 65.0763 412.12 56.0563 413.03 55.4763C414.56 54.4963 414.39 55.5963 414.72 56.6863C416.54 54.8363 417.62 51.0663 420.72 51.4063L419.29 70.1163C420.82 69.2363 424.51 60.9663 425.12 60.6063C425.57 60.3363 426.39 60.5963 426.96 60.5263C425.26 78.2663 418.33 94.7263 412.57 111.386C407.98 124.656 403.51 137.866 399.14 151.206C399.09 151.346 399.19 151.546 399.14 151.686L398.66 152.646C397.27 156.896 394.48 167.026 392.19 169.926C391.5 170.796 388.57 173.746 387.65 174.026C386.14 174.496 381.04 174.426 379.45 174.016C375.15 172.906 368.52 169.176 365.78 165.616C362.73 161.646 364.49 161.626 365.58 158.196C368.84 147.836 371.31 137.026 374.67 126.746C377.62 117.716 381.29 108.816 384.48 99.8563C386.38 94.5363 387.51 88.7763 389.54 83.5663H389.53Z" fill="white"/>
<path d="M453.81 163.696C449.4 165.496 446.27 169.916 442.78 173.056C440.24 175.346 434.53 180.956 432 182.426C431.3 182.836 430.94 183.026 430.09 182.906L399.12 151.226C403.49 137.876 407.96 124.666 412.55 111.406L430.04 129.666L431.44 130.096L484.51 74.9463C476.09 97.4963 468.16 119.496 460.54 142.376C458.56 148.326 453.84 157.886 453.81 163.706V163.696Z" fill="#FFBF10"/>
<path d="M460.84 227.346C460.5 227.676 459.62 228.276 459.2 228.366C458.12 228.596 450.36 226.876 449.06 226.266C447.52 225.546 438.45 219.026 437.19 217.746C436.49 217.036 434.12 213.946 433.88 213.136C432.09 207.076 436.32 205.676 440.13 202.556C441.94 201.076 443.99 199.046 445.87 197.766C449.73 195.136 449.22 197.196 452.13 197.326C454.23 197.426 454.89 195.616 457.29 196.916C459.69 198.216 462.34 207.016 462.3 209.626C462.28 210.616 461.37 211.216 461.54 212.306C461.68 213.186 462.83 213.876 462.91 214.826C462.98 215.626 462.37 216.486 462.41 217.236C462.59 220.546 463.74 224.566 460.83 227.366L460.84 227.346Z" fill="white"/>
<path d="M398.64 152.667L399.12 151.707C398.96 152.187 398.69 152.507 398.64 152.667Z" fill="#FFD301"/>
<path d="M374.66 126.756C373.17 125.246 365.06 117.286 365.05 115.966L369.86 110.206H368.43L371.06 106.136C365.34 110.036 360.97 115.556 355.95 120.286C354 122.126 351.38 123.936 349.45 125.786C337.8 136.986 326.89 148.976 314.95 159.896C313.99 160.536 312.26 160.576 311.18 160.246C308.78 159.526 302.31 149.816 300.48 147.446C288.54 132.026 276.95 116.526 265.92 100.426C265.26 99.4562 263.41 98.9962 264.02 97.0062C264.54 95.3462 267.15 93.3762 267.19 91.2562C264.37 93.2562 263.08 97.0062 260.01 98.6962L268.39 86.9262C266.38 87.5362 264.8 89.5062 263.35 90.9962C256.72 97.7962 250.67 105.786 244.95 113.376C242.08 117.186 239.15 122.616 236.02 126.036C235.38 126.736 234.73 127.386 233.76 127.616C214.71 128.336 195.84 130.896 176.8 131.576C120.92 133.566 64.79 132.616 8.89999 134.936C7.44999 134.996 4.57 135.426 3.84 133.966L27.1 132.036L31.66 131.076H2.16C0.330004 131.076 -0.899996 127.196 1.16 125.756C2.66 124.716 10.21 124.686 10.55 124.356C10.77 124.146 10.07 120.256 11.14 119.186C12.21 118.116 16.85 118.136 17.2 117.566C17.49 117.086 17.11 114.286 17.82 113.866C18.36 113.536 22.49 113.446 23.5 113.316L0 110.436L0.710022 109.486L23.02 108.526L12.95 104.926L14.04 103.626L20.62 101.816L10.31 101.326L5.27002 100.376C12.05 100.556 18.89 100.116 25.67 100.356C75.86 102.096 125.52 101.946 175.82 99.9162L220.31 96.9162C221.46 96.5762 230.6 82.7862 232.25 80.5462C241.48 68.0262 251.81 54.8763 262.14 43.2663C266.57 38.2863 271.4 33.6362 276.06 28.8862C274.45 33.6662 268.78 36.4862 268.85 41.8262C270.31 41.3762 271.62 38.3262 272.93 40.1662L270.06 46.8762C273.02 45.6562 274.89 42.0862 278.2 41.8362C278.88 42.5462 275.42 52.1062 274.92 53.7162C274.82 54.6862 278.94 60.1062 279.84 61.5462C283.77 67.8262 287.66 75.2362 291.91 81.1462C298.69 90.5762 308.03 99.0462 314.92 108.526C319.65 104.476 324.22 99.8262 328.57 95.3462C334.98 88.7562 341.33 81.5362 348.23 75.1762C357.8 66.3362 368.2 58.3963 377.74 49.5163C378.4 49.8663 377.82 50.7762 377.52 51.2162C376.11 53.3062 373.11 55.5562 371.75 57.9162L375.1 56.2362C375.77 56.8862 371.35 60.3162 372.3 61.6462L389.5 83.5862C387.47 88.7962 386.34 94.5662 384.44 99.8762C381.25 108.836 377.58 117.726 374.63 126.766L374.66 126.756Z" fill="#FFBF10"/>
<path d="M75.79 76.8465C74.85 76.9265 75.31 75.9065 76.04 75.4165L75.79 76.8465Z" fill="white"/>
<path d="M81.32 73.9766C81.63 74.1366 81.63 74.2965 81.32 74.4565V73.9766Z" fill="white"/>
<path d="M193.81 155.546C194.33 156.066 193.38 157.026 192.86 156.496C192.34 155.966 193.29 155.016 193.81 155.546Z" fill="white"/>
<path d="M192.13 156.497C192.44 156.657 192.44 156.817 192.13 156.977V156.497Z" fill="white"/>
<path d="M543.04 29.3564C543.69 30.5764 539.69 34.1764 539.21 33.6664L540.16 31.9865L543.04 29.3564Z" fill="#FFD300"/>
<path d="M539.2 34.1562L537.76 36.0663C536.46 36.0163 538.03 33.9562 539.2 34.1562Z" fill="#FFD300"/>
<path d="M580.45 37.0262C580.28 37.3562 579.64 36.7462 579.98 36.0762C580.15 35.7462 580.79 36.3562 580.45 37.0262Z" fill="#FFD300"/>
<path d="M578.819 48.1355L577.143 49.811L577.369 50.0374L579.045 48.3618L578.819 48.1355Z" fill="#FFD300"/>
<path d="M535.6 37.0264C535.91 37.1864 535.91 37.3464 535.6 37.5064V37.0264Z" fill="#FFD300"/>
<path d="M581.17 35.5864C581.48 35.7464 581.48 35.9064 581.17 36.0664V35.5864Z" fill="#FFD300"/>
</svg>
