<svg width="606" height="229" viewBox="0 0 606 229" fill="none" xmlns="http://www.w3.org/2000/svg">
<path d="M207.42 6.21007L200.71 14.8401C201.91 15.1501 204.31 12.5201 204.96 13.0101C205.07 13.0901 204.97 13.9601 205.25 13.8901C205.49 13.8301 209.19 11.2601 208.37 13.1601C207.55 15.0601 201.89 17.9101 200.7 20.1201C203.98 19.4201 209.02 14.8001 211.97 14.3601C214.49 13.9801 209.49 18.0901 209.34 18.4501L210.77 19.4001C201.57 27.9001 193.16 37.4301 182.48 44.1301C182 44.8101 190.36 57.8101 191.14 58.2401C191.98 58.7001 193.16 58.5401 193.98 59.2401C198.3 62.9101 192.65 80.6401 187.3 82.2901C179.79 84.6101 175.1 77.5401 171.24 72.3901C168.5 68.7401 165.86 63.3201 162.96 60.0601C162.71 59.7801 162.96 59.3601 162.12 59.4601L160.72 60.0301C152.12 67.4901 140.6 73.5401 132.15 80.8701C128.18 84.3101 126.15 89.91 119.4 87.3C118.66 85.1 116.17 83.6901 115.22 81.8801C113.96 79.4701 113.3 74.7301 112.3 71.8501C112.03 71.0801 111.16 70.3601 111.06 69.6801C111.02 69.3901 112.13 66.2401 112.34 65.8501C113.79 63.2001 114.95 64.2901 116.94 63.2601C119.46 61.9601 124.56 57.0301 127.36 54.9701C134.75 49.5501 142.16 44.1401 149.65 38.8501C150.32 37.8101 146.73 33.8901 146.22 32.5701C134.41 39.1601 123.19 46.8701 112.01 54.4801L68.07 91.1301L67.36 90.4301C72.06 85.5201 76.23 80.1201 81.26 75.5401C77.74 76.3901 76.01 80.2101 72.64 81.5401C72.27 79.4601 75.06 78.9601 75.04 77.2301C70.5 76.9801 74.58 72.4601 74.57 71.7201C74.57 71.1301 73.76 70.5201 73.62 69.7701C73.45 68.8601 73.8 67.7901 73.62 67.0101C73.52 66.6001 72.62 66.5001 72.26 65.8801C71.36 64.3101 71.71 62.5501 72.16 60.9201C70.1 61.1401 69.94 63.1001 67.82 61.6001L55.38 68.1201C58.72 61.0101 66.46 55.3301 72.7 50.6601C89.94 37.7701 110.37 24.8001 128.52 12.9301C132.73 10.1801 136.35 9.02007 139.56 5.27007C141.02 3.57007 154.56 0.370056 156.73 1.04006C157.54 1.29006 157.87 2.30006 158.52 2.61006C159.33 2.99006 160.26 2.76006 161.18 3.31006C162.87 4.33006 165.09 10.3401 165.56 12.3601C166.05 14.5201 165.92 16.8301 166.41 18.7101C166.6 19.4401 169.41 24.8001 169.83 24.9001C171.18 25.2201 174.47 21.4601 175.55 20.6301C184.71 13.6101 195.89 7.71006 207.43 6.22006L207.42 6.21007ZM81.5 74.3501V74.83C81.81 74.67 81.81 74.5101 81.5 74.3501ZM75.97 77.2201L76.22 75.7901C75.49 76.2801 75.03 77.3001 75.97 77.2201Z" fill="#020202"/>
<path d="M521.15 16.29C524.59 11.01 528.81 6.11002 532.43 0.95002C534.84 -0.69998 535.09 1.51002 535.1 3.58002L533.14 24.93C534.1 24.84 534.28 22.34 534.58 22.06C535.12 21.54 535.56 22.02 535.55 22.79C535.51 26.66 533.63 31.15 533.13 35.02C529.71 40.53 525.7 51.99 523.18 58.41C513.68 82.59 505.39 107.35 497.15 131.94C494.87 138.76 492.03 145.69 489.83 152.68C488.91 155.6 484.28 173.94 483.4 174.67C481.85 175.97 478.24 176.16 476.86 177.01C475.98 177.55 475.23 180.03 473.3 180.33C473.03 180.37 468.5 179.3 467.97 179.13C466.42 178.61 456.89 171.13 455.59 169.68C453.69 167.56 453.96 166.81 453.98 164.09C454.02 158.27 458.73 148.7 460.71 142.76C468.33 119.87 476.25 97.88 484.68 75.33C491.74 56.43 498.24 37.23 506.65 18.85L510.11 14.4L509.64 17.27L511.07 15.36C511.42 15.91 509.21 21.24 511.07 19.67C511.34 19.44 514.26 14.51 514.83 13.59C515.35 12.76 515.43 11.67 515.95 10.87C516.56 9.93002 520.77 3.83002 521.14 3.59002C523.14 2.31002 522.16 5.71003 522.11 6.24003L521.63 7.20002C521.48 7.42002 521.27 11.6 521.15 12.48C519.78 12.33 520.33 12.59 520.19 13.44C520.02 14.44 519.95 15.29 519.71 16.32C519.64 16.61 517.73 20.22 519.46 19.68C519.97 19.52 520.74 16.94 521.14 16.32L521.15 16.29Z" fill="#020202"/>
<path d="M346.54 194.78C343.18 194.66 347.11 195.4 346.06 196.69C345.57 197.29 332.73 198.76 330.87 199.5L326.87 201.49C328.33 201.82 337.52 202.53 337.9 202.94C337.99 203.04 337.84 203.99 337.9 204.37C337.74 204.53 333.87 204.11 333.58 205.33C336.21 205.6 338.89 205.6 341.52 205.79C342.26 205.84 343.25 205.73 343.65 206.54C344.09 207.43 342.71 207.35 342.21 207.48C338.81 208.36 335.48 208.73 332.04 209.31C331.53 209.39 330.13 209.43 330.23 210.13C336.7 209.66 343.38 211.58 349.71 212C352.87 212.21 352.19 211.76 355.73 212.69C357.23 213.08 358.86 212.62 359.96 213.73C359.94 214.57 352.66 215.3 351.57 215.41C334.01 217.18 316.35 219.24 298.8 220.69C278.74 222.35 257.4 221.48 237.41 224.06C236.3 224.2 234.95 224.51 233.91 224.87C231.14 225.85 227.06 228.94 224.04 227.35C218.68 224.53 212.1 212.67 212.83 206.66C214.39 193.79 233.38 194.05 243.19 193.8C244.56 193.76 245.71 194.33 246.98 194.32C248.89 194.3 251.46 193.29 253.48 193.34C250.77 180.67 249.64 167.69 250.1 154.7C250.14 153.56 250.57 152.5 250.64 151.36C250.8 148.84 249.48 146.26 252.34 143.99C253.82 142.81 261.88 140.62 263.84 140.62C267.89 140.62 275.7 145.73 277.48 149.42C279.26 153.11 278.57 160.98 278.9 165.27C279.61 174.39 280.54 183.55 281.26 192.64C288.54 192.71 295.8 192.4 303.14 192.4C307.66 192.4 311.29 192.78 315.57 192.88C325.49 193.1 335.41 192.95 345.33 193.34L346.54 194.77V194.78Z" fill="#020202"/>
<path d="M196.87 147.28C195.97 148.21 195.36 149.88 194 150.16L195.91 150.39C195.5 151 191.92 153.84 192.56 154.47L196.39 152.56L194.48 155.91C203.42 152.34 193.71 160.24 194 161.42C194.07 161.72 196.08 163.07 196.56 163.03C196.9 163 201.65 159.23 200.71 161.43C199.98 163.13 194.31 167.11 193.05 169.12C195.9 168.69 197.75 165.17 200.27 164.31C201.21 163.99 201.87 164.54 202.97 164.22C205.88 163.35 210.88 158.76 213.91 158.32C214.62 158.22 214.77 158.32 214.64 159.05C214.38 160.51 210.11 163.97 209.37 165.77L212.71 164.8C211.07 166.35 209.59 168.09 207.93 169.61C194.09 182.28 179.25 194.05 165.22 206.54C158.56 212.47 150.01 222.66 142.28 226.78C138.42 228.83 136.29 228.09 132.94 225.89C124.23 220.19 102.64 192.31 95.4801 182.75C93.6801 180.35 86.77 170.44 86.55 168.13C86.45 167.08 87.03 166.2 87.05 165.27C87.11 162.71 85.9001 162.02 88.4501 159.52C89.4301 158.55 91.63 157.93 91.75 157.79C92.18 157.29 91.0001 153.28 93.9501 151.59C95.2001 150.87 99.09 150.99 100.71 151.12C101.77 151.21 106.6 151.92 107.33 152.18C108.27 152.51 108.33 153.99 109.11 154.72C110.69 156.2 110.95 156.44 112.45 158.1C122.46 169.21 132.49 180.31 142.16 191.72C142.6 192.22 143.08 192.54 143.78 192.36C144.8 192.09 156.94 179.65 158.98 177.77C169.24 168.35 180 159.28 191.18 150.96C192 150.35 196.3 146.83 196.89 147.32L196.87 147.28ZM193.99 155.92C193.47 155.4 192.51 156.35 193.04 156.87C193.57 157.39 194.52 156.44 193.99 155.92ZM192.31 156.87V157.35C192.62 157.19 192.62 157.03 192.31 156.87Z" fill="#020202"/>
<path d="M533.14 35C533.38 34.61 533.58 33.94 534.09 34.04L534.33 35.48L549.21 21.09C549.79 20.89 550.18 21.2 549.92 21.8C549.32 23.18 545.74 26.17 544.65 27.57L545.83 28.27L562.63 11.98C563.58 12.66 563.36 12.94 563.13 13.9C561.89 19.11 556.65 25.71 554.73 30.93L564.31 22.28C569.89 17.7 579.96 9.50999 578.71 23.49L581.59 22.3C580.71 26.02 577.3 28.73 576.54 32.6L596.93 12.46C596.81 14.8 594.5 16.33 593.47 18.35C593.04 19.19 593.22 20.21 592.82 21.06C590.92 25.1 584.63 30.28 582.06 34.29L582.77 35L604.6 12.21L605.56 12.69L577.27 47.26C577.35 48.84 577.32 47.93 577.87 47.38C578.76 46.48 579.29 46.17 580.39 45.58L579.67 47.97L581.58 47.49C581.72 48.22 581.51 48.61 581.13 49.19C578.69 52.95 570.15 59.39 566.45 63.3C547.78 83.08 526.67 100.88 507.69 120.65C504.15 124.34 500.88 128.39 497.16 131.93C505.4 107.34 513.69 82.58 523.19 58.4C525.71 51.98 529.73 40.52 533.14 35.01V35ZM543.94 28.76V29.24C544.25 29.08 544.25 28.92 543.94 28.76ZM543.22 29.73L540.34 32.36L539.39 34.04C539.87 34.54 543.88 30.94 543.22 29.73ZM539.38 34.53C538.21 34.34 536.64 36.4 537.94 36.44L539.38 34.53ZM581.35 35.96V36.44C581.66 36.28 581.66 36.12 581.35 35.96ZM580.63 37.4C580.97 36.73 580.33 36.12 580.16 36.45C579.82 37.12 580.46 37.73 580.63 37.4ZM535.78 37.4V37.88C536.09 37.72 536.09 37.56 535.78 37.4ZM578.96 48.45L577.29 50.12L577.52 50.35L579.19 48.68L578.96 48.45Z" fill="#FFBF10"/>
<path d="M389.71 83.9398C391.02 80.5598 393.12 76.7198 394.89 73.5298C395.74 72.0098 402.07 61.5899 402.65 61.1399C403.01 60.8599 403.17 60.8498 403.62 60.9098C404.08 64.6198 402.24 68.2898 402.9 71.9398C404.43 71.3298 405.03 63.3198 406.98 65.2198C407.23 65.4698 406.45 67.2499 407.46 67.1399C408.16 65.4499 412.3 56.4299 413.21 55.8499C414.74 54.8699 414.57 55.9698 414.9 57.0598C416.72 55.2098 417.8 51.4398 420.9 51.7798L419.47 70.4898C421 69.6098 424.69 61.3399 425.3 60.9799C425.75 60.7099 426.57 60.9698 427.14 60.8998C425.44 78.6398 418.51 95.0999 412.75 111.76C408.16 125.03 403.69 138.24 399.32 151.58C399.27 151.72 399.37 151.92 399.32 152.06L398.84 153.02C397.45 157.27 394.66 167.4 392.37 170.3C391.68 171.17 388.75 174.12 387.83 174.4C386.32 174.87 381.22 174.8 379.63 174.39C375.33 173.28 368.7 169.55 365.96 165.99C362.91 162.02 364.67 162 365.76 158.57C369.02 148.21 371.49 137.4 374.85 127.12C377.8 118.09 381.47 109.19 384.66 100.23C386.56 94.9099 387.69 89.1498 389.72 83.9398H389.71Z" fill="#020202"/>
<path d="M453.99 164.07C449.58 165.87 446.45 170.29 442.96 173.43C440.42 175.72 434.71 181.33 432.18 182.8C431.48 183.21 431.12 183.4 430.27 183.28L399.3 151.6C403.67 138.25 408.14 125.04 412.73 111.78L430.22 130.04L431.62 130.47L484.69 75.3198C476.27 97.8698 468.34 119.87 460.72 142.75C458.74 148.7 454.02 158.26 453.99 164.08V164.07Z" fill="#FFBF10"/>
<path d="M461.02 227.72C460.68 228.05 459.8 228.65 459.38 228.74C458.3 228.97 450.54 227.25 449.24 226.64C447.7 225.92 438.63 219.4 437.37 218.12C436.67 217.41 434.3 214.32 434.06 213.51C432.27 207.45 436.5 206.05 440.31 202.93C442.12 201.45 444.17 199.42 446.05 198.14C449.91 195.51 449.4 197.57 452.31 197.7C454.41 197.8 455.07 195.99 457.47 197.29C459.87 198.59 462.52 207.39 462.48 210C462.46 210.99 461.55 211.59 461.72 212.68C461.86 213.56 463.01 214.25 463.09 215.2C463.16 216 462.55 216.86 462.59 217.61C462.77 220.92 463.92 224.94 461.01 227.74L461.02 227.72Z" fill="#020202"/>
<path d="M398.82 153.04L399.3 152.08C399.14 152.56 398.87 152.88 398.82 153.04Z" fill="#FFD301"/>
<path d="M374.84 127.13C373.35 125.62 365.24 117.66 365.23 116.34L370.04 110.58H368.61L371.24 106.51C365.52 110.41 361.15 115.93 356.13 120.66C354.18 122.5 351.56 124.31 349.63 126.16C337.98 137.36 327.07 149.35 315.13 160.27C314.17 160.91 312.44 160.95 311.36 160.62C308.96 159.9 302.49 150.19 300.66 147.82C288.72 132.4 277.13 116.9 266.1 100.8C265.44 99.8298 263.59 99.3698 264.2 97.3798C264.72 95.7198 267.33 93.7498 267.37 91.6298C264.55 93.6298 263.26 97.3798 260.19 99.0698L268.57 87.2998C266.56 87.9098 264.98 89.8798 263.53 91.3698C256.9 98.1698 250.85 106.16 245.13 113.75C242.26 117.56 239.33 122.99 236.2 126.41C235.56 127.11 234.91 127.76 233.94 127.99C214.89 128.71 196.02 131.27 176.98 131.95C121.1 133.94 64.97 132.99 9.07999 135.31C7.62999 135.37 4.74999 135.8 4.01999 134.34L27.28 132.41L31.84 131.45H2.34C0.509996 131.45 -0.720004 127.57 1.34 126.13C2.84 125.09 10.39 125.06 10.73 124.73C10.95 124.52 10.25 120.63 11.32 119.56C12.39 118.49 17.03 118.51 17.38 117.94C17.67 117.46 17.29 114.66 18 114.24C18.54 113.91 22.67 113.82 23.68 113.69L0.179993 110.81L0.890015 109.86L23.2 108.9L13.13 105.3L14.22 104L20.8 102.19L10.49 101.7L5.45001 100.75C12.23 100.93 19.07 100.49 25.85 100.73C76.04 102.47 125.7 102.32 176 100.29L220.49 97.2898C221.64 96.9498 230.78 83.1598 232.43 80.9198C241.66 68.3998 251.99 55.2498 262.32 43.6398C266.75 38.6598 271.58 34.0098 276.24 29.2598C274.63 34.0398 268.96 36.8598 269.03 42.1998C270.49 41.7498 271.8 38.6998 273.11 40.5398L270.24 47.2498C273.2 46.0298 275.07 42.4598 278.38 42.2098C279.06 42.9198 275.6 52.4798 275.1 54.0898C275 55.0598 279.12 60.4798 280.02 61.9198C283.95 68.1998 287.84 75.6098 292.09 81.5198C298.87 90.9498 308.21 99.4198 315.1 108.9C319.83 104.85 324.4 100.2 328.75 95.7198C335.16 89.1298 341.51 81.9098 348.41 75.5498C357.98 66.7098 368.38 58.7698 377.92 49.8898C378.58 50.2398 378 51.1498 377.7 51.5898C376.29 53.6798 373.29 55.9298 371.93 58.2898L375.28 56.6098C375.95 57.2598 371.53 60.6898 372.48 62.0198L389.68 83.9598C387.65 89.1698 386.52 94.9398 384.62 100.25C381.43 109.21 377.76 118.1 374.81 127.14L374.84 127.13Z" fill="#FFBF10"/>
<path d="M75.97 77.22C75.03 77.3 75.49 76.28 76.22 75.79L75.97 77.22Z" fill="#020202"/>
<path d="M81.5 74.3501C81.81 74.5101 81.81 74.6701 81.5 74.8301V74.3501Z" fill="#020202"/>
<path d="M193.99 155.92C194.51 156.44 193.56 157.4 193.04 156.87C192.52 156.34 193.47 155.39 193.99 155.92Z" fill="#020202"/>
<path d="M192.31 156.87C192.62 157.03 192.62 157.19 192.31 157.35V156.87Z" fill="#020202"/>
<path d="M543.22 29.73C543.87 30.95 539.87 34.55 539.39 34.04L540.34 32.36L543.22 29.73Z" fill="#FFD300"/>
<path d="M539.38 34.5298L537.94 36.4398C536.64 36.3898 538.21 34.3298 539.38 34.5298Z" fill="#FFD300"/>
<path d="M580.63 37.3998C580.46 37.7298 579.82 37.1198 580.16 36.4498C580.33 36.1198 580.97 36.7298 580.63 37.3998Z" fill="#FFD300"/>
<path d="M578.999 48.509L577.323 50.1846L577.549 50.4109L579.225 48.7353L578.999 48.509Z" fill="#FFD300"/>
<path d="M535.78 37.3999C536.09 37.5599 536.09 37.7199 535.78 37.8799V37.3999Z" fill="#FFD300"/>
<path d="M581.35 35.96C581.66 36.12 581.66 36.28 581.35 36.44V35.96Z" fill="#FFD300"/>
</svg>
